<?xml version="1.0" standalone="no"?><!-- Generator: Gravit.io --><svg xmlns="http://www.w3.org/2000/svg" xmlns:xlink="http://www.w3.org/1999/xlink" style="isolation:isolate" viewBox="192.05 35.477 120 120" width="120" height="120"><path d=" M 266.783 128.794 C 266.383 128.328 265.956 127.873 265.491 127.443 C 262.732 124.866 259.281 123.345 255.696 122.837 L 255.696 95.903 L 280.637 82.671 C 283.341 85.859 287.284 88.078 291.789 88.713 L 291.789 105.614 C 286.481 106.74 282.518 111.161 282.518 116.452 C 282.518 117.689 282.744 118.874 283.143 119.985 L 266.783 128.794 Z  M 223.532 120.302 C 223.732 117.231 222.589 114.097 220.073 111.75 C 218.424 110.213 216.41 109.23 214.293 108.781 L 214.293 86.515 C 217.155 85.789 219.862 84.391 222.109 82.295 C 222.54 81.894 222.945 81.474 223.321 81.044 L 250.388 95.879 L 250.388 122.837 C 246.804 123.345 243.352 124.868 240.593 127.443 C 240.128 127.873 239.701 128.328 239.3 128.796 L 223.532 120.302 Z  M 246.821 56.08 C 248.635 57.116 250.76 57.727 253.043 57.727 C 255.324 57.727 257.449 57.117 259.262 56.08 L 278.161 66.258 C 277.311 68.181 276.836 70.287 276.836 72.499 C 276.836 74.57 277.265 76.542 278.015 78.366 L 253.064 91.605 L 226.009 76.774 C 227.36 73.618 227.602 70.153 226.768 66.878 L 246.821 56.08 Z  M 312.05 72.499 C 312.05 63.43 304.168 56.076 294.445 56.076 C 288.994 56.076 284.127 58.386 280.895 62.012 L 263.163 52.464 C 264.301 50.761 264.969 48.756 264.969 46.602 C 264.969 40.457 259.627 35.477 253.043 35.477 C 246.457 35.477 241.115 40.457 241.115 46.602 C 241.115 48.755 241.783 50.76 242.919 52.464 L 224.747 62.249 C 224.02 61.118 223.154 60.043 222.109 59.07 C 215.233 52.657 204.086 52.657 197.208 59.071 C 190.331 65.484 190.331 75.882 197.206 82.295 C 200.474 85.342 204.706 86.925 208.984 87.076 L 208.984 108.781 C 206.868 109.23 204.853 110.213 203.205 111.75 C 198.548 116.096 198.548 123.138 203.205 127.482 C 207.864 131.825 215.414 131.825 220.073 127.482 C 220.829 126.778 221.448 125.998 221.957 125.174 L 236.646 133.081 C 234.185 138.971 235.493 145.913 240.593 150.666 C 247.468 157.08 258.616 157.08 265.491 150.666 C 270.59 145.912 271.9 138.97 269.438 133.081 L 285.909 124.214 C 288.075 126.284 291.096 127.576 294.445 127.576 C 301.031 127.576 306.372 122.595 306.372 116.452 C 306.372 111.159 302.407 106.74 297.098 105.614 L 297.098 88.713 C 305.559 87.517 312.05 80.724 312.05 72.499 Z " fill="rgb(44,61,80)"/></svg>